<svg width="98" height="98" viewBox="0 0 98 98" fill="none" xmlns="http://www.w3.org/2000/svg">
<path fill-rule="evenodd" clip-rule="evenodd" d="M19.4862 24.6597C20.7404 26.1752 22.0992 27.5863 23.5625 28.8928C24.6338 24.6597 26.0187 20.714 27.7171 17.2126C24.6338 19.2769 21.864 21.7854 19.4862 24.6597ZM48.9871 0.30642C22.1253 0.28029 0.332771 22.0467 0.306641 48.9085C0.306641 48.9346 0.306641 48.9607 0.306641 48.9868C0.306641 75.8747 22.0992 97.6673 48.9871 97.6673C75.875 97.6673 97.6675 75.8747 97.6675 48.9868C97.6675 22.0989 75.9011 0.30642 48.9871 0.30642ZM48.9871 10.7323C45.6685 10.7323 41.4093 13.4237 37.6205 20.6618C35.5823 24.5813 33.9361 29.4676 32.8648 35.0072C37.9079 37.3589 43.4213 38.5609 48.9871 38.5609C54.5528 38.5609 60.0401 37.3589 65.1094 35.0072C64.0642 29.4676 62.3918 24.5813 60.3537 20.6618C56.5648 13.4237 52.3056 10.7323 48.9871 10.7323ZM74.4378 28.8928C73.4449 24.8687 72.06 20.9492 70.2831 17.2126C73.3665 19.2769 76.1363 21.7854 78.5141 24.6597C77.2599 26.1752 75.9011 27.5863 74.4378 28.8928ZM66.3375 45.8251C60.7979 47.9416 54.9186 49.013 49.0132 48.9868C43.1078 48.9868 37.2285 47.9155 31.6889 45.8251C31.4276 51.8873 31.898 57.9495 33.1 63.9072C38.1169 65.5011 43.4736 66.3895 49.0132 66.3895C54.5528 66.3895 59.9095 65.5272 64.9526 63.9072C66.1546 57.9495 66.6249 51.8873 66.3375 45.8251ZM76.2931 58.6811C76.9724 52.6451 76.9986 46.5829 76.4237 40.5207C79.2458 38.6132 81.8588 36.3921 84.1843 33.9359C86.3009 38.9006 87.3461 44.2573 87.2416 49.6662C84.0014 53.1415 80.3171 56.1726 76.2931 58.655V58.6811ZM61.1898 75.6396C53.1418 77.2335 44.8585 77.2335 36.8104 75.6396C37.0717 76.2144 37.3592 76.7893 37.6466 77.338C41.3832 84.5761 45.6685 87.2675 48.9871 87.2675C52.3056 87.2675 56.5648 84.5761 60.3537 77.338C60.6411 76.7893 60.9024 76.2144 61.1898 75.6396ZM70.3093 80.7872C71.6942 77.8868 72.8439 74.8557 73.7323 71.7462C76.9202 70.3874 79.9513 68.7674 82.8256 66.9121C79.8468 72.504 75.5614 77.2596 70.3093 80.7872ZM27.7171 80.7872C26.3322 77.8868 25.1825 74.8557 24.2941 71.7462C21.1324 70.3874 18.1013 68.7674 15.2008 66.9121C18.1796 72.504 22.465 77.2596 27.7171 80.7872ZM10.7326 49.6924C13.9466 53.1677 17.6309 56.1988 21.6811 58.6811C21.0017 52.6451 20.9756 46.5829 21.5504 40.5468C18.7284 38.6393 16.1415 36.4183 13.7898 33.962C11.6732 38.9267 10.628 44.2834 10.7326 49.6924Z" fill="#EBAD00"/>
</svg>
