<svg width="100" height="100" viewBox="0 0 100 100" fill="none" xmlns="http://www.w3.org/2000/svg">
<g clip-path="url(#clip0_85_13)">
<path d="M50.0122 95.8486C75.3358 95.8486 95.8486 75.3357 95.8486 50.0122C95.8486 24.6886 75.3114 4.17578 50.0122 4.17578C24.7131 4.17578 4.17584 24.6886 4.17584 50.0122C4.05374 75.2136 24.3956 95.7265 49.5971 95.8486C49.7436 95.8486 49.8657 95.8486 50.0122 95.8486ZM50.0122 12.503C70.7204 12.503 87.5214 29.304 87.5214 50.0122C87.5214 70.7204 70.7204 87.5213 50.0122 87.5213C29.304 87.5213 12.5031 70.7204 12.5031 50.0122C12.6252 29.3528 29.3529 12.6251 50.0122 12.503Z" fill="#EBAD00"/>
<path d="M50.0122 58.3394C52.3077 58.3394 54.1881 56.4835 54.1881 54.1636V29.1575C54.1881 26.862 52.3321 24.9817 50.0122 24.9817C47.6923 24.9817 45.8364 26.8376 45.8364 29.1575V54.1636C45.8364 56.4591 47.6923 58.3394 50.0122 58.3394Z" fill="#EBAD00"/>
<path d="M50.0122 75.0182C52.3185 75.0182 54.1881 73.1486 54.1881 70.8423C54.1881 68.5361 52.3185 66.6665 50.0122 66.6665C47.706 66.6665 45.8364 68.5361 45.8364 70.8423C45.8364 73.1486 47.706 75.0182 50.0122 75.0182Z" fill="#EBAD00"/>
</g>
<defs>
<clipPath id="clip0_85_13">
<rect width="100" height="100" fill="white"/>
</clipPath>
</defs>
</svg>
