<svg width="100" height="100" viewBox="0 0 100 100" fill="none" xmlns="http://www.w3.org/2000/svg">
<path fill-rule="evenodd" clip-rule="evenodd" d="M100 37.9647C100 18.6176 84.2176 2.94116 64.7588 2.94116C45.2823 2.94116 29.5059 18.6176 29.5059 37.9647C29.5059 57.3 45.2882 72.9765 64.7588 72.9765C84.2176 72.9765 100 57.3 100 37.9647ZM34.9059 38.347C34.9059 21.8412 48.3117 8.48822 64.8588 8.48822C81.3941 8.48822 94.7882 21.847 94.7882 38.347C94.7882 54.8412 81.3941 68.2 64.8588 68.2C48.3117 68.2 34.9059 54.8353 34.9059 38.347Z" fill="#EBAD00"/>
<path fill-rule="evenodd" clip-rule="evenodd" d="M16.6 96.8471L5.88232 86.1294L29.6294 62.3765C29.6294 62.3765 30.1941 66.8765 33.0411 69.7118C35.8764 72.5588 40.347 73.1 40.347 73.1L16.6 96.8471Z" fill="#EBAD00"/>
<path fill-rule="evenodd" clip-rule="evenodd" d="M84.6943 32.7824C84.6943 36.1471 87.2825 34.8765 87.2825 30.2001C87.2825 22.1412 80.759 15.6118 72.7002 15.6118C68.012 15.6118 66.7473 18.1942 70.1178 18.1942C78.1767 18.1942 84.6943 24.7295 84.6943 32.7824Z" fill="#EBAD00"/>
</svg>
