<?xml version="1.0" encoding="UTF-8"?>
<svg id="Layer_1" data-name="Layer 1" xmlns="http://www.w3.org/2000/svg" viewBox="0 0 386.82 180.51">
  <defs>
    <style>
      .cls-1 {
        fill: #fcb900;
      }

      .cls-2 {
        fill: #1171a7;
      }
    </style>
  </defs>
  <path class="cls-2" d="M268.34,0h-80.49l-17.67,54.57h-1.57L147.97,0h-44.6l-20.81,54.57h-1.4L63.32,0H0l51.25,175.61h55.1l18.19-37.61h2.1l17.47,36.11c4.39-26.54,30.8-126.87,124.24-174.12Z"/>
  <g>
    <path class="cls-1" d="M286.58,0c-10.82,11.92-22.72,32.57-27.74,67.69h29.85v107.92h62.97v-107.92h35.16V0h-100.23Z"/>
    <path class="cls-1" d="M265.76,13.6c-.22.14-.67.43-1.29.84-.16.11-.32.22-.5.34.17-.11.33-.22.5-.33.43-.28.85-.57,1.29-.86Z"/>
    <path class="cls-1" d="M211.66,158.35h-11.31c.58,4.09,1.26,7.88,1.96,11.3.86,4.2,1.74,7.86,2.52,10.87,0,0,0,0,0,0h11.72s0,0,0,0c-2.1-7.69-3.7-15.07-4.89-22.17Z"/>
    <path class="cls-1" d="M208.77,79.42h7.77c2.23-6.59,4.83-12.64,7.66-18.18h-6.23c-3.67,6.02-6.7,12.1-9.19,18.18Z"/>
    <path class="cls-1" d="M213.46,89.85h-8.47c-2.31,7.35-3.89,14.63-4.91,21.7h9.63c.75-7.73,2.04-14.96,3.75-21.7Z"/>
    <path class="cls-1" d="M209.04,121.99h-10.08c-.67,9.22-.47,17.97.2,25.92h11.02c-1.05-9.15-1.4-17.79-1.14-25.92Z"/>
    <path class="cls-1" d="M248.94,25.9h1.5c5.95-5.68,10.92-9.33,13.53-11.11-5.43,3.59-10.43,7.3-15.03,11.11Z"/>
    <path class="cls-1" d="M225.03,50.8h5.1c3.44-5.45,7.03-10.27,10.56-14.47h-3.16c-4.67,4.73-8.82,9.57-12.5,14.47Z"/>
  </g>
</svg>