<?xml version="1.0" encoding="UTF-8"?>
<svg id="Layer_1" data-name="Layer 1" xmlns="http://www.w3.org/2000/svg" viewBox="0 0 37.65 37.66">
  <defs>
    <style>
      .cls-1 {
        fill: #fff;
      }
    </style>
  </defs>
  <path class="cls-1" d="M14.12,37.66H1.57c-.87,0-1.57-.7-1.57-1.57s.7-1.57,1.57-1.57h12.55c.87,0,1.57.7,1.57,1.57s-.7,1.57-1.57,1.57ZM10.98,31.39H1.57c-.87,0-1.57-.7-1.57-1.57s.7-1.57,1.57-1.57h9.41c.87,0,1.57.7,1.57,1.57s-.7,1.57-1.57,1.57ZM7.84,25.11H1.57c-.87,0-1.57-.7-1.57-1.57s.7-1.57,1.57-1.57h6.28c.87,0,1.57.7,1.57,1.57s-.7,1.57-1.57,1.57ZM20.39,37.59c-.87.04-1.6-.63-1.64-1.5-.04-.87.63-1.6,1.5-1.64,8.63-.79,14.98-8.42,14.19-17.05-.79-8.63-8.42-14.98-17.05-14.19-7.54.69-13.51,6.66-14.19,14.2-.08.86-.84,1.5-1.7,1.42-.86-.08-1.5-.84-1.42-1.7h0C1.02,6.77,10.17-.86,20.52.08c9.7.88,17.13,9.02,17.13,18.76.05,9.75-7.4,17.91-17.12,18.75-.05,0-.1,0-.14,0ZM18.83,9.42c-.87,0-1.57.7-1.57,1.57v7.84c0,.42.17.81.46,1.11l4.71,4.71c.62.6,1.62.58,2.22-.04.59-.61.59-1.57,0-2.18l-4.25-4.25v-7.19c0-.87-.7-1.57-1.57-1.57Z"/>
</svg>