<?xml version="1.0" encoding="UTF-8"?>
<svg id="Layer_1" data-name="Layer 1" xmlns="http://www.w3.org/2000/svg" viewBox="0 0 38.27 38.27">
  <defs>
    <style>
      .cls-1 {
        fill: #fff;
        fill-rule: evenodd;
        stroke: #2072b9;
        stroke-miterlimit: 10;
      }
    </style>
  </defs>
  <path class="cls-1" d="M7.84,9.82c.48.58,1,1.12,1.56,1.62.41-1.62.94-3.13,1.59-4.47-1.18.79-2.24,1.75-3.15,2.85ZM19.13.5C8.85.49.51,8.82.5,19.1c0,.01,0,.02,0,.03,0,10.29,8.34,18.63,18.63,18.63s18.63-8.34,18.63-18.63S29.43.5,19.13.5ZM19.13,4.49c-1.27,0-2.9,1.03-4.35,3.8-.78,1.5-1.41,3.37-1.82,5.49,1.93.9,4.04,1.36,6.17,1.36,2.13,0,4.23-.46,6.17-1.36-.4-2.12-1.04-3.99-1.82-5.49-1.45-2.77-3.08-3.8-4.35-3.8ZM28.87,11.44c-.38-1.54-.91-3.04-1.59-4.47,1.18.79,2.24,1.75,3.15,2.85-.48.58-1,1.12-1.56,1.62ZM25.77,17.92c-2.12.81-4.37,1.22-6.63,1.21-2.26,0-4.51-.41-6.63-1.21-.1,2.32.08,4.64.54,6.92,1.92.61,3.97.95,6.09.95s4.17-.33,6.1-.95c.46-2.28.64-4.6.53-6.92h0ZM29.58,22.84c.26-2.31.27-4.63.05-6.95,1.08-.73,2.08-1.58,2.97-2.52.81,1.9,1.21,3.95,1.17,6.02-1.24,1.33-2.65,2.49-4.19,3.44h0ZM23.8,29.33c-3.08.61-6.25.61-9.33,0,.1.22.21.44.32.65,1.43,2.77,3.07,3.8,4.34,3.8s2.9-1.03,4.35-3.8c.11-.21.21-.43.32-.65h0ZM27.29,31.3c.53-1.11.97-2.27,1.31-3.46,1.22-.52,2.38-1.14,3.48-1.85-1.14,2.14-2.78,3.96-4.79,5.31h0ZM10.99,31.3c-.53-1.11-.97-2.27-1.31-3.46-1.21-.52-2.37-1.14-3.48-1.85,1.14,2.14,2.78,3.96,4.79,5.31h0ZM4.49,19.4c1.23,1.33,2.64,2.49,4.19,3.44-.26-2.31-.27-4.63-.05-6.94-1.08-.73-2.07-1.58-2.97-2.52-.81,1.9-1.21,3.95-1.17,6.02Z"/>
</svg>