<?xml version="1.0" encoding="UTF-8"?>
<svg id="Layer_1" data-name="Layer 1" xmlns="http://www.w3.org/2000/svg" viewBox="0 0 39.69 27.93">
  <defs>
    <style>
      .cls-1 {
        fill: #fff;
      }
    </style>
  </defs>
  <path class="cls-1" d="M39.69,21.9c0-3.47,0-6.94-.02-10.41-3.25-3.82-6.52-7.67-9.79-11.49C19.93.03,9.96.07,0,.1v21.8h3.76c-.02.07-.02.13-.02.2,0,3.22,2.61,5.83,5.85,5.83s5.83-2.61,5.83-5.83c0-.07,0-.13-.02-.2h8.86c-.02.07-.02.13-.02.2,0,3.22,2.63,5.83,5.85,5.83s5.85-2.61,5.85-5.83c0-.07,0-.13-.02-.2h3.77ZM3.47,9.87V3.64h6.67v6.23H3.47ZM9.59,25.69c-1.99,0-3.59-1.62-3.59-3.59,0-.07,0-.13.02-.2.1-1.89,1.65-3.39,3.57-3.39s3.47,1.5,3.57,3.39c.02.07.02.13.02.2,0,1.97-1.62,3.59-3.59,3.59ZM19.83,9.87h-6.65V3.64h6.65v6.23ZM23.4,9.87V3.64h4.58c1.63,2.07,3.29,4.14,4.92,6.2-3.17.02-6.33.02-9.5.03ZM30.09,25.69c-1.99,0-3.59-1.62-3.59-3.59,0-.07,0-.13.02-.2.1-1.89,1.65-3.39,3.57-3.39s3.47,1.5,3.57,3.39c.02.07.02.13.02.2,0,1.97-1.6,3.59-3.59,3.59Z"/>
</svg>