<?xml version="1.0" encoding="UTF-8"?>
<svg id="Layer_1" data-name="Layer 1" xmlns="http://www.w3.org/2000/svg" viewBox="0 0 40.95 40.95">
  <defs>
    <style>
      .cls-1 {
        fill: #fff;
      }

      .cls-2 {
        fill: none;
      }
    </style>
  </defs>
  <g id="Layer_2" data-name="Layer 2">
    <g id="invisible_box" data-name="invisible box">
      <rect class="cls-2" width="40.95" height="40.95"/>
    </g>
    <g id="Q3_icons" data-name="Q3 icons">
      <g>
        <path class="cls-1" d="M20.48,39.25c10.37,0,18.77-8.4,18.77-18.77S30.84,1.71,20.48,1.71,1.71,10.11,1.71,20.48c-.05,10.32,8.28,18.72,18.6,18.77.06,0,.11,0,.17,0ZM20.48,5.12c8.48,0,15.36,6.88,15.36,15.36s-6.88,15.36-15.36,15.36-15.36-6.88-15.36-15.36c.05-8.46,6.9-15.31,15.36-15.36Z"/>
        <path class="cls-1" d="M20.48,23.89c.94,0,1.71-.76,1.71-1.71v-10.24c0-.94-.76-1.71-1.71-1.71s-1.71.76-1.71,1.71v10.24c0,.94.76,1.71,1.71,1.71Z"/>
        <circle class="cls-1" cx="20.48" cy="29.01" r="1.71"/>
      </g>
    </g>
  </g>
</svg>