<?xml version="1.0" encoding="UTF-8"?>
<svg id="Layer_1" data-name="Layer 1" xmlns="http://www.w3.org/2000/svg" viewBox="0 0 33.75 34.53">
  <defs>
    <style>
      .cls-1 {
        fill: #fff;
      }
    </style>
  </defs>
  <path class="cls-1" d="M6.74,19.02c1.65,1.66,3.29,3.31,4.94,4.97.42.43.85.85,1.27,1.28.18.18.36.43.56.57.14.33.28.38.42.15.09-.09.19-.18.28-.28.85-.83,1.71-1.66,2.56-2.48,3.37-3.27,6.73-6.53,10.1-9.8.06-.05.02-.79.02-.76,0-.61,0-1.22,0-1.82s0-1.22,0-1.82c0-.12-.08-.7-.02-.76-3.37,3.27-6.73,6.53-10.1,9.8-.81.78-1.61,1.56-2.42,2.35l-.28.28c-.14.32-.29.37-.43.13-.18-.06-.43-.43-.56-.57-.42-.43-.85-.85-1.27-1.28-1.69-1.7-3.39-3.41-5.08-5.11.03.03-.02.83-.02.76,0,.61,0,1.22,0,1.82s0,1.22,0,1.82c0,.14-.07.67.02.76h0Z"/>
  <path class="cls-1" d="M29.89,0H3.85C1.73,0,0,1.73,0,3.85v26.83c0,2.12,1.73,3.85,3.85,3.85h26.04c2.12,0,3.85-1.73,3.85-3.85V3.85c0-2.12-1.73-3.85-3.85-3.85ZM29.89,31.61H3.85c-.51,0-.93-.42-.93-.93V3.85c0-.51.42-.93.93-.93h26.04c.51,0,.93.42.93.93v26.83c0,.51-.42.93-.93.93Z"/>
</svg>