<?xml version="1.0" encoding="UTF-8"?>
<svg id="Layer_1" data-name="Layer 1" xmlns="http://www.w3.org/2000/svg" viewBox="0 0 48.51 33.36">
  <defs>
    <style>
      .cls-1 {
        fill: #fff;
      }
    </style>
  </defs>
  <g id="_36" data-name="36">
    <g>
      <path class="cls-1" d="M14.96,3.31h14.97c.39,0,.71-.32.71-.71s-.32-.71-.71-.71h-14.97c-.39,0-.71.32-.71.71s.32.71.71.71Z"/>
      <path class="cls-1" d="M1.58,10.28h14.97c.39,0,.71-.32.71-.71s-.32-.71-.71-.71H1.58c-.39,0-.71.32-.71.71s.32.71.71.71Z"/>
      <path class="cls-1" d="M5.59,17.6c0,.39.32.71.71.71h14.97c.39,0,.71-.32.71-.71s-.32-.71-.71-.71H6.31c-.39,0-.71.32-.71.71Z"/>
      <path class="cls-1" d="M14.16,25.88H.71c-.39,0-.71.32-.71.71s.32.71.71.71h13.45c.39,0,.71-.32.71-.71s-.32-.71-.71-.71Z"/>
      <path class="cls-1" d="M38.36,7.78c2.15,0,3.89-1.74,3.89-3.89s-1.74-3.89-3.89-3.89-3.89,1.74-3.89,3.89c0,2.15,1.74,3.89,3.89,3.89Z"/>
      <path class="cls-1" d="M44.76,6.66c-2.23,3.13-5.22,3.49-8.44,1.58-.22-.13-1.19-.67-1.41-.79-5.18-3.07-10.35-1.87-13.82,2.99-1.47,2.07,1.93,4.02,3.39,1.98,1.79-2.51,4.07-3.24,6.56-2.44-1.28,2.21-2.39,4.42-3.97,7.54-1.57,3.13-5.05,5.62-8.39,3.67-2.41-1.41-4.58,2.05-2.18,3.46,4.56,2.67,9.91,1.03,12.64-2.44.09.05.19.1.3.13,2.23.78,5.15,2.85,6.04,3.58.89.73,2.42,4.47,3.33,6.34,1.1,2.28,4.66.62,3.56-1.67-1.03-2.13-2.76-6.38-4.11-7.45-1.08-.86-3.18-2.47-4.96-3.38,1.2-2.33,2.46-4.64,3.78-6.91,4.21,1.29,8.21-.23,11.06-4.22,1.47-2.07-1.93-4.02-3.39-1.98Z"/>
    </g>
  </g>
</svg>