<?xml version="1.0" encoding="UTF-8"?>
<svg id="Layer_1" data-name="Layer 1" xmlns="http://www.w3.org/2000/svg" viewBox="0 0 45.33 27.17">
  <defs>
    <style>
      .cls-1 {
        fill: #fff;
      }
    </style>
  </defs>
  <g>
    <path class="cls-1" d="M45.33,22.99h-10.78c-.86-1.82-2.14-3.39-3.71-4.58,1.46-1.92,3.79-3.17,6.4-3.17,4.35,0,7.9,3.45,8.09,7.75Z"/>
    <circle class="cls-1" cx="37.25" cy="9.26" r="5.28"/>
  </g>
  <g>
    <path class="cls-1" d="M14.79,18.8c-1.36,1.15-2.46,2.56-3.23,4.2H0c.19-4.3,3.74-7.75,8.09-7.75,2.78,0,5.24,1.41,6.7,3.55Z"/>
    <circle class="cls-1" cx="8.08" cy="9.26" r="5.28"/>
  </g>
  <g>
    <path class="cls-1" d="M34.05,27.17H12.06c.19-1.52.67-2.93,1.4-4.18.56-.99,1.28-1.9,2.12-2.68,1.97-1.78,4.6-2.86,7.46-2.86,2.61,0,5.02.89,6.91,2.41,1.09.86,2,1.92,2.68,3.13.74,1.25,1.23,2.66,1.42,4.18Z"/>
    <path class="cls-1" d="M30.85,7.78c0,4.3-3.5,7.78-7.8,7.78s-7.78-3.49-7.78-7.78S18.77,0,23.04,0s7.8,3.49,7.8,7.78Z"/>
  </g>
</svg>