<svg width="100" height="61" viewBox="0 0 100 61" fill="none" xmlns="http://www.w3.org/2000/svg">
<path d="M50 0C53.8677 0 57.5771 1.53645 60.312 4.27136C63.0469 7.00627 64.5833 10.7156 64.5833 14.5833C64.5833 18.4511 63.0469 22.1604 60.312 24.8953C57.5771 27.6302 53.8677 29.1667 50 29.1667C46.1323 29.1667 42.4229 27.6302 39.688 24.8953C36.9531 22.1604 35.4167 18.4511 35.4167 14.5833C35.4167 10.7156 36.9531 7.00627 39.688 4.27136C42.4229 1.53645 46.1323 0 50 0ZM20.8333 10.4167C23.1667 10.4167 25.3333 11.0417 27.2083 12.1667C26.5833 18.125 28.3333 24.0417 31.9167 28.6667C29.8333 32.6667 25.6667 35.4167 20.8333 35.4167C17.5181 35.4167 14.3387 34.0997 11.9945 31.7555C9.65029 29.4113 8.33333 26.2319 8.33333 22.9167C8.33333 19.6015 9.65029 16.422 11.9945 14.0778C14.3387 11.7336 17.5181 10.4167 20.8333 10.4167ZM79.1667 10.4167C82.4819 10.4167 85.6613 11.7336 88.0055 14.0778C90.3497 16.422 91.6667 19.6015 91.6667 22.9167C91.6667 26.2319 90.3497 29.4113 88.0055 31.7555C85.6613 34.0997 82.4819 35.4167 79.1667 35.4167C74.3333 35.4167 70.1667 32.6667 68.0833 28.6667C71.7146 23.976 73.4006 18.0673 72.7917 12.1667C74.6667 11.0417 76.8333 10.4167 79.1667 10.4167ZM22.9167 53.125C22.9167 44.5 35.0417 37.5 50 37.5C64.9583 37.5 77.0833 44.5 77.0833 53.125V60.4167H22.9167V53.125ZM0 60.4167V54.1667C0 48.375 7.875 43.5 18.5417 42.0833C16.0833 44.9167 14.5833 48.8333 14.5833 53.125V60.4167H0ZM100 60.4167H85.4167V53.125C85.4167 48.8333 83.9167 44.9167 81.4583 42.0833C92.125 43.5 100 48.375 100 54.1667V60.4167Z" fill="#1171A7"/>
</svg>
