<svg width="100" height="100" viewBox="0 0 100 100" fill="none" xmlns="http://www.w3.org/2000/svg">
<g clip-path="url(#clip0_85_39)">
<path d="M76.2501 40H52.5001V48.75C52.5001 54.9532 47.4533 60 41.2501 60C35.047 60 30.0001 54.9532 30.0001 48.75V29.75L19.8595 35.8438C16.8439 37.6407 15.0001 40.9063 15.0001 44.4063V51.7969L2.50015 59.0157C0.109521 60.3907 -0.718604 63.4532 0.672021 65.8438L13.172 87.5C14.547 89.8907 17.6095 90.7032 20.0001 89.3282L36.1564 80H57.5001C63.0158 80 67.5001 75.5157 67.5001 70H70.0001C72.7658 70 75.0001 67.7657 75.0001 65V55H76.2501C78.3283 55 80.0001 53.3282 80.0001 51.25V43.75C80.0001 41.6719 78.3283 40 76.2501 40ZM99.3283 34.1563L86.8283 12.5C85.4533 10.1094 82.3908 9.29691 80.0001 10.6719L63.8439 20H47.8751C46.0001 20 44.172 20.5313 42.5783 21.5157L37.3439 24.7813C35.8751 25.6875 35.0001 27.2969 35.0001 29.0157V48.75C35.0001 52.2032 37.797 55 41.2501 55C44.7033 55 47.5001 52.2032 47.5001 48.75V35H76.2501C81.0783 35 85.0001 38.9219 85.0001 43.75V48.2032L97.5001 40.9844C99.8908 39.5938 100.703 36.5469 99.3283 34.1563Z" fill="#FCB900"/>
</g>
<defs>
<clipPath id="clip0_85_39">
<rect width="100" height="100" fill="white"/>
</clipPath>
</defs>
</svg>
