<svg width="100" height="100" viewBox="0 0 100 100" fill="none" xmlns="http://www.w3.org/2000/svg">
<path fill-rule="evenodd" clip-rule="evenodd" d="M20.4862 25.6597C21.7404 27.1752 23.0992 28.5863 24.5625 29.8928C25.6338 25.6597 27.0187 21.714 28.7171 18.2126C25.6338 20.2769 22.864 22.7854 20.4862 25.6597ZM49.9871 1.30642C23.1253 1.28029 1.33277 23.0467 1.30664 49.9085C1.30664 49.9346 1.30664 49.9607 1.30664 49.9868C1.30664 76.8747 23.0992 98.6673 49.9871 98.6673C76.875 98.6673 98.6675 76.8747 98.6675 49.9868C98.6675 23.0989 76.9011 1.30642 49.9871 1.30642ZM49.9871 11.7323C46.6685 11.7323 42.4093 14.4237 38.6205 21.6618C36.5823 25.5813 34.9361 30.4676 33.8648 36.0072C38.9079 38.3589 44.4213 39.5609 49.9871 39.5609C55.5528 39.5609 61.0401 38.3589 66.1094 36.0072C65.0642 30.4676 63.3918 25.5813 61.3537 21.6618C57.5648 14.4237 53.3056 11.7323 49.9871 11.7323ZM75.4378 29.8928C74.4449 25.8687 73.06 21.9492 71.2831 18.2126C74.3665 20.2769 77.1363 22.7854 79.5141 25.6597C78.2599 27.1752 76.9011 28.5863 75.4378 29.8928ZM67.3375 46.8251C61.7979 48.9416 55.9186 50.013 50.0132 49.9868C44.1078 49.9868 38.2285 48.9155 32.6889 46.8251C32.4276 52.8873 32.898 58.9495 34.1 64.9072C39.1169 66.5011 44.4736 67.3895 50.0132 67.3895C55.5528 67.3895 60.9095 66.5272 65.9526 64.9072C67.1546 58.9495 67.6249 52.8873 67.3375 46.8251ZM77.2931 59.6811C77.9724 53.6451 77.9986 47.5829 77.4237 41.5207C80.2458 39.6132 82.8588 37.3921 85.1843 34.9359C87.3009 39.9006 88.3461 45.2573 88.2416 50.6662C85.0014 54.1415 81.3171 57.1726 77.2931 59.655V59.6811ZM62.1898 76.6396C54.1418 78.2335 45.8585 78.2335 37.8104 76.6396C38.0717 77.2144 38.3592 77.7893 38.6466 78.338C42.3832 85.5761 46.6685 88.2675 49.9871 88.2675C53.3056 88.2675 57.5648 85.5761 61.3537 78.338C61.6411 77.7893 61.9024 77.2144 62.1898 76.6396ZM71.3093 81.7872C72.6942 78.8868 73.8439 75.8557 74.7323 72.7462C77.9202 71.3874 80.9513 69.7674 83.8256 67.9121C80.8468 73.504 76.5614 78.2596 71.3093 81.7872ZM28.7171 81.7872C27.3322 78.8868 26.1825 75.8557 25.2941 72.7462C22.1324 71.3874 19.1013 69.7674 16.2008 67.9121C19.1796 73.504 23.465 78.2596 28.7171 81.7872ZM11.7326 50.6924C14.9466 54.1677 18.6309 57.1988 22.6811 59.6811C22.0017 53.6451 21.9756 47.5829 22.5504 41.5468C19.7284 39.6393 17.1415 37.4183 14.7898 34.962C12.6732 39.9267 11.628 45.2834 11.7326 50.6924Z" fill="#FCB900"/>
</svg>
