<?xml version="1.0" encoding="UTF-8"?>
<svg id="Layer_1" data-name="Layer 1" xmlns="http://www.w3.org/2000/svg" viewBox="0 0 800 403.26">
  <defs>
    <style>
      .cls-1 {
        fill: #1171a7;
      }

      .cls-2 {
        fill: #fcb900;
      }

      .cls-3 {
        fill: #999;
      }
    </style>
  </defs>
  <g>
    <path class="cls-2" d="m77.49,287.72c-.13,2.94-.85,7.61-2.15,14-.33.98-.52,1.76-.59,2.35l-7.34,33.49h-30.85L7.87,239.25h35.45l7.74,43.28c.26,1.96.52,3.8.78,5.53.26,1.73.49,3.38.68,4.94.33,2.81.55,5.75.69,8.81h.78c.07-3.92.78-9.04,2.15-15.37,0-.2.02-.42.05-.69.03-.26.08-.49.15-.69l9.4-45.83h24.87l9.3,45.93c.07.33.16.75.29,1.27,1.24,6.53,1.92,11.65,2.06,15.37h.88c0-1.7.2-4.63.59-8.81.39-3.59.91-7.08,1.57-10.48l7.74-43.28h35.45l-28.69,98.32h-30.85l-7.44-33.49-.49-2.45c-1.31-5.55-2.06-10.18-2.25-13.91h-1.27Z"/>
    <path class="cls-2" d="m160.44,337.57v-98.32h35.94v98.32h-35.94Z"/>
    <path class="cls-2" d="m205.09,337.57v-98.32h28.59c9.07,0,16.81.49,23.21,1.47,6.4,1.11,11.62,2.68,15.67,4.7,8.62,4.57,15.14,10.51,19.59,17.82,4.57,7.31,6.85,15.73,6.85,25.26s-2.25,17.76-6.76,25.07c-4.51,7.31-11.07,13.25-19.68,17.82-4.44,2.22-9.69,3.79-15.77,4.7-6.4.98-14.98,1.47-25.75,1.47h-25.95Zm35.06-30.06c7.97,0,13.77-1.57,17.43-4.7,3.65-2.94,5.48-7.7,5.48-14.3s-1.76-11.16-5.29-14.3c-3.46-3.13-8.85-4.7-16.16-4.7h-1.47v37.99Z"/>
    <path class="cls-2" d="m309.97,337.57v-98.32h65.71v26.63h-31.04v9.5h28.1v25.17h-28.1v10.38h31.83v26.64h-66.49Z"/>
    <path class="cls-1" d="m418.06,337.57v-66.2h-19.68v-32.12h74.62v32.12h-19.68v66.2h-35.25Z"/>
    <path class="cls-1" d="m487.49,292.52v-53.27h35.35v53.56c0,6.2.75,10.48,2.25,12.83,1.43,2.35,3.95,3.53,7.54,3.53s6.04-1.21,7.54-3.62c1.57-2.41,2.35-6.66,2.35-12.73v-53.56h35.25v53.27c0,7.31-.46,13.06-1.37,17.23-.91,4.57-2.39,8.36-4.41,11.36-3.92,6.2-9.27,10.9-16.06,14.1-6.72,3.27-14.49,4.9-23.3,4.9s-16.71-1.63-23.31-4.9c-6.85-3.2-12.24-7.9-16.16-14.1-2.02-3-3.46-6.72-4.31-11.16-.92-4.63-1.37-10.44-1.37-17.43Z"/>
    <path class="cls-1" d="m589.43,337.57v-98.32h44.46c12.86,0,22.72,2.84,29.57,8.52,6.79,5.75,10.19,13.94,10.19,24.58,0,6.99-1.73,12.73-5.19,17.23-3.39,4.5-8,7.15-13.81,7.93l26.24,40.05h-39.66l-17.14-32.51v32.51h-34.67Zm34.67-73.05v19.29h5.48c3.26,0,5.84-.82,7.74-2.45,1.83-1.7,2.74-4.05,2.74-7.05s-.91-5.48-2.74-7.25c-1.83-1.7-4.41-2.55-7.74-2.55h-5.48Z"/>
    <path class="cls-1" d="m693.91,337.57v-98.32h34.66l30.55,51.41c-.39-2.22-.69-4.73-.88-7.54-.13-3.79-.2-7.41-.2-10.87v-33h34.08v98.32h-34.96l-30.16-51.12c.33,2.94.59,5.32.78,7.15.2,2.55.29,5.35.29,8.42v35.55h-34.17Z"/>
  </g>
  <g>
    <path class="cls-3" d="m169.27,387.7h-27.7v-28.19h6.56v22.89h21.14v5.3Z"/>
    <path class="cls-3" d="m236.03,381.04c0,2.62-.5,4.39-1.5,5.3-1,.91-2.83,1.37-5.49,1.37h-20.76c-2.66,0-4.49-.45-5.49-1.37-1-.91-1.5-2.68-1.5-5.3v-14.86c0-2.62.5-4.39,1.5-5.3,1-.91,2.83-1.37,5.49-1.37h20.76c2.66,0,4.49.46,5.49,1.37,1,.91,1.5,2.68,1.5,5.3v14.86Zm-6.56,1.37v-17.86h-21.63v17.86h21.63Z"/>
    <path class="cls-3" d="m306.72,381.04c0,2.62-.5,4.39-1.5,5.3-1,.91-2.83,1.37-5.49,1.37h-19.45c-2.66,0-4.49-.45-5.49-1.37-1-.91-1.5-2.68-1.5-5.3v-14.86c0-2.62.5-4.39,1.5-5.3,1-.91,2.83-1.37,5.49-1.37h19.45c2.8,0,4.67.48,5.6,1.45.93.97,1.39,2.83,1.39,5.6l-6.39,1.15v-3.17h-20.49v17.86h20.49v-6.28h-10.71v-4.81h17.1v9.72Z"/>
    <path class="cls-3" d="m351.19,387.7h-6.56v-28.19h6.56v28.19Z"/>
    <path class="cls-3" d="m420.24,381.04c0,2.62-.51,4.39-1.53,5.3-1.02.91-2.86,1.37-5.52,1.37h-17.43c-2.88,0-4.77-.51-5.68-1.53-.91-1.02-1.37-2.99-1.37-5.9l5.79-1.2v3.33h19.94v-6.45h-17.59c-2.66,0-4.49-.45-5.49-1.37-1-.91-1.5-2.68-1.5-5.3v-3.11c0-2.62.5-4.39,1.5-5.3,1-.91,2.83-1.37,5.49-1.37h16.01c2.69,0,4.53.46,5.52,1.39s1.47,2.72,1.47,5.38l-5.79,1.37v-3.22h-18.47v6.06h17.59c2.66,0,4.5.46,5.52,1.37,1.02.91,1.53,2.68,1.53,5.3v3.88Z"/>
    <path class="cls-3" d="m484,364.54h-13v23.16h-6.56v-23.16h-12.95v-5.03h32.51v5.03Z"/>
    <path class="cls-3" d="m522.62,387.7h-6.56v-28.19h6.56v28.19Z"/>
    <path class="cls-3" d="m591.29,381.04c0,2.62-.5,4.39-1.5,5.3-1,.91-2.83,1.37-5.49,1.37h-16.83c-2.66,0-4.49-.45-5.49-1.37-1-.91-1.5-2.68-1.5-5.3v-14.86c0-2.62.5-4.39,1.5-5.3,1-.91,2.83-1.37,5.49-1.37h16.83c3.35,0,5.43.78,6.23,2.35.51.91.76,3.24.76,6.99l-6.56,1.04v-5.35h-17.7v17.86h17.7v-6.06l6.56,1.37v3.33Z"/>
    <path class="cls-3" d="m658.43,381.04c0,2.62-.51,4.39-1.53,5.3-1.02.91-2.86,1.37-5.52,1.37h-17.43c-2.88,0-4.77-.51-5.68-1.53-.91-1.02-1.37-2.99-1.37-5.9l5.79-1.2v3.33h19.94v-6.45h-17.59c-2.66,0-4.49-.45-5.49-1.37-1-.91-1.5-2.68-1.5-5.3v-3.11c0-2.62.5-4.39,1.5-5.3,1-.91,2.83-1.37,5.49-1.37h16.01c2.69,0,4.53.46,5.52,1.39s1.47,2.72,1.47,5.38l-5.79,1.37v-3.22h-18.47v6.06h17.59c2.66,0,4.5.46,5.52,1.37,1.02.91,1.53,2.68,1.53,5.3v3.88Z"/>
  </g>
  <g>
    <path class="cls-1" d="m474.94,30.9h-80.49l-17.67,54.57h-1.57l-20.64-54.57h-44.6l-20.81,54.57h-1.4l-17.84-54.57h-63.32l51.25,175.61h55.1l18.19-37.61h2.1l17.47,36.11c4.39-26.54,30.8-126.87,124.24-174.12Z"/>
    <g>
      <path class="cls-2" d="m493.17,30.9c-10.82,11.92-22.72,32.57-27.74,67.69h29.85v107.92h62.97v-107.92h35.16V30.9h-100.23Z"/>
      <path class="cls-2" d="m472.36,44.5c-.22.14-.67.43-1.29.84-.16.11-.32.22-.5.34.17-.11.33-.22.5-.33.43-.28.85-.57,1.29-.86Z"/>
      <path class="cls-2" d="m418.25,189.24h-11.31c.58,4.09,1.26,7.88,1.96,11.3.86,4.2,1.74,7.86,2.52,10.87,0,0,0,0,0,0h11.72s0,0,0,0c-2.1-7.69-3.7-15.07-4.89-22.17Z"/>
      <path class="cls-2" d="m415.36,110.32h7.77c2.23-6.59,4.83-12.64,7.66-18.18h-6.23c-3.67,6.02-6.7,12.1-9.19,18.18Z"/>
      <path class="cls-2" d="m420.05,120.75h-8.47c-2.31,7.35-3.89,14.63-4.91,21.7h9.63c.75-7.73,2.04-14.96,3.75-21.7Z"/>
      <path class="cls-2" d="m415.63,152.89h-10.08c-.67,9.22-.47,17.97.2,25.92h11.02c-1.05-9.15-1.4-17.79-1.14-25.92Z"/>
      <path class="cls-2" d="m455.54,56.8h1.5c5.95-5.68,10.92-9.33,13.53-11.11-5.43,3.59-10.43,7.3-15.03,11.11Z"/>
      <path class="cls-2" d="m431.62,81.7h5.1c3.44-5.45,7.03-10.27,10.56-14.47h-3.16c-4.67,4.73-8.82,9.57-12.5,14.47Z"/>
    </g>
  </g>
</svg>