<svg width="746" height="746" viewBox="0 0 746 746" fill="none" xmlns="http://www.w3.org/2000/svg">
<path d="M350.926 61.7556L108.403 197.943C78.846 214.54 64.0804 222.832 54.4797 233.691C45.4759 244.004 38.9667 256.251 35.456 269.484C31.9454 282.716 31.5276 296.579 34.2349 309.999C37.1081 324.554 45.643 339.753 62.7273 370.177L263.271 727.306C275.558 749.187 307.207 746.71 314.933 723.252C317.077 716.631 321.639 711.061 327.708 707.653C333.776 704.245 340.907 703.249 347.677 704.865L366.324 709.22C378.188 712.056 390.685 710.314 401.321 704.341C411.957 698.369 419.95 688.605 423.703 676.999C427.457 665.393 435.45 655.629 446.086 649.656C456.722 643.684 469.219 641.942 481.083 644.778C492.947 647.614 505.444 645.872 516.08 639.899C526.716 633.927 534.708 624.163 538.462 612.557C542.216 600.951 550.209 591.187 560.845 585.214C571.481 579.242 583.978 577.5 595.842 580.336C607.705 583.172 620.203 581.43 630.839 575.457C641.475 569.485 649.467 559.721 653.221 548.115L659.209 529.926C661.353 523.305 665.915 517.734 671.984 514.326C678.053 510.919 685.183 509.923 691.953 511.539C716.004 517.153 734.593 491.419 722.306 469.538L521.762 112.409C504.678 81.9849 496.129 66.7603 485.226 56.782C475.177 47.4782 463.121 40.6128 449.992 36.7179C436.864 32.8229 423.014 32.003 409.518 34.3215C395.249 36.8666 380.483 45.1582 350.926 61.7556Z" stroke="black" stroke-opacity="0.1" stroke-width="1.5"/>
<path d="M320.296 380.848L486.059 287.765M231.039 430.969L243.79 423.809M180.917 341.712L193.668 334.552M281.161 520.226L293.912 513.066M270.174 291.591L435.937 198.508M370.417 470.104L536.18 377.021" stroke="black" stroke-opacity="0.1" stroke-width="1.5" stroke-linecap="round"/>
</svg>
