<svg width="100" height="60" viewBox="0 0 100 60" fill="none" xmlns="http://www.w3.org/2000/svg">
<g clip-path="url(#clip0_85_47)">
<path d="M99.9998 50.7692H76.2186C74.3214 46.7501 71.4977 43.2831 68.0342 40.6552C71.255 36.4152 76.3951 33.6548 82.1529 33.6548C91.7492 33.6548 99.5806 41.2735 99.9998 50.7692Z" fill="#FCB900"/>
<path d="M82.1748 32.1089C88.6077 32.1089 93.8227 26.8886 93.8227 20.449C93.8227 14.0094 88.6077 8.78906 82.1748 8.78906C75.7418 8.78906 70.5269 14.0094 70.5269 20.449C70.5269 26.8886 75.7418 32.1089 82.1748 32.1089Z" fill="#FCB900"/>
<path d="M32.6274 41.5163C29.6272 44.0559 27.2005 47.1696 25.5019 50.7912H0C0.419148 41.2955 8.25061 33.6768 17.8469 33.6768C23.9797 33.6768 29.4066 36.7905 32.6274 41.5163Z" fill="#FCB900"/>
<path d="M17.8247 32.1089C24.2576 32.1089 29.4726 26.8886 29.4726 20.449C29.4726 14.0094 24.2576 8.78906 17.8247 8.78906C11.3917 8.78906 6.17676 14.0094 6.17676 20.449C6.17676 26.8886 11.3917 32.1089 17.8247 32.1089Z" fill="#FCB900"/>
<path d="M75.1159 60H26.605C27.0241 56.6434 28.083 53.5296 29.6934 50.7692C30.9288 48.583 32.5172 46.5734 34.3703 44.8509C38.7162 40.9201 44.5181 38.5352 50.8273 38.5352C56.5851 38.5352 61.9017 40.5006 66.0711 43.8572C68.4757 45.7564 70.4832 48.0972 71.9833 50.7692C73.6158 53.5296 74.6967 56.6434 75.1159 60Z" fill="#FCB900"/>
<path d="M68.0567 17.1807C68.0567 26.6765 60.3355 34.3614 50.8495 34.3614C41.3636 34.3614 33.6865 26.6544 33.6865 17.1807C33.6865 7.70703 41.4077 0 50.8275 0C60.2473 0 68.0346 7.70703 68.0346 17.1807H68.0567Z" fill="#FCB900"/>
</g>
<defs>
<clipPath id="clip0_85_47">
<rect width="100" height="60" fill="white"/>
</clipPath>
</defs>
</svg>
