<svg width="50" height="50" viewBox="0 0 50 50" fill="none" xmlns="http://www.w3.org/2000/svg">
<path d="M1.0415 27.7604L2.08317 23.5937H13.5415L12.4998 27.7604H1.0415ZM14.5832 41.6666C12.8471 41.6666 11.3714 41.059 10.1561 39.8437C8.94081 38.6284 8.33317 37.1527 8.33317 35.4166H3.12484L4.1665 30.8854H14.9478L16.8228 23.2812H21.1978L23.8019 12.8645H9.37484L9.68734 11.6145C9.89567 10.6423 10.3734 9.8527 11.1207 9.24575C11.8679 8.63881 12.7443 8.33464 13.7498 8.33325H37.4998L35.5728 16.6666H41.6665L47.9165 24.9999L45.8332 35.4166H41.6665C41.6665 37.1527 41.0589 38.6284 39.8436 39.8437C38.6283 41.059 37.1526 41.6666 35.4165 41.6666C33.6804 41.6666 32.2047 41.059 30.9894 39.8437C29.7741 38.6284 29.1665 37.1527 29.1665 35.4166H20.8332C20.8332 37.1527 20.2255 38.6284 19.0103 39.8437C17.795 41.059 16.3193 41.6666 14.5832 41.6666ZM5.20817 20.1562L6.24984 15.9895H19.7915L18.7498 20.1562H5.20817ZM14.5832 37.4999C15.1734 37.4999 15.6686 37.2999 16.0686 36.8999C16.4686 36.4999 16.6679 36.0055 16.6665 35.4166C16.6651 34.8277 16.4651 34.3333 16.0665 33.9333C15.6679 33.5333 15.1734 33.3333 14.5832 33.3333C13.9929 33.3333 13.4984 33.5333 13.0998 33.9333C12.7012 34.3333 12.5012 34.8277 12.4998 35.4166C12.4984 36.0055 12.6984 36.5006 13.0998 36.902C13.5012 37.3034 13.9957 37.5027 14.5832 37.4999ZM35.4165 37.4999C36.0068 37.4999 36.5019 37.2999 36.9019 36.8999C37.3019 36.4999 37.5012 36.0055 37.4998 35.4166C37.4984 34.8277 37.2984 34.3333 36.8998 33.9333C36.5012 33.5333 36.0068 33.3333 35.4165 33.3333C34.8262 33.3333 34.3318 33.5333 33.9332 33.9333C33.5346 34.3333 33.3346 34.8277 33.3332 35.4166C33.3318 36.0055 33.5318 36.5006 33.9332 36.902C34.3346 37.3034 34.829 37.5027 35.4165 37.4999ZM33.1769 27.0833H43.229L43.4373 25.9895L39.5832 20.8333H34.6353L33.1769 27.0833Z" fill="#FCB900"/>
</svg>
