<svg width="100" height="80" viewBox="0 0 100 80" fill="none" xmlns="http://www.w3.org/2000/svg">
<path d="M65 0C67.6522 0 70.1957 1.05357 72.0711 2.92893C73.9464 4.8043 75 7.34784 75 10V15H82.6C84.0988 15.0002 85.5785 15.3373 86.9294 15.9864C88.2804 16.6355 89.4682 17.58 90.405 18.75L97.805 28.005C99.2255 29.7785 99.9996 31.9828 100 34.255V55C100 57.6522 98.9464 60.1957 97.0711 62.0711C95.1957 63.9464 92.6522 65 90 65H85C85 68.9782 83.4196 72.7936 80.6066 75.6066C77.7936 78.4196 73.9782 80 70 80C66.0218 80 62.2064 78.4196 59.3934 75.6066C56.5804 72.7936 55 68.9782 55 65H40C40 66.9698 39.612 68.9204 38.8582 70.7403C38.1044 72.5601 36.9995 74.2137 35.6066 75.6066C34.2137 76.9995 32.5601 78.1044 30.7403 78.8582C28.9204 79.612 26.9698 80 25 80C23.0302 80 21.0796 79.612 19.2597 78.8582C17.4399 78.1044 15.7863 76.9995 14.3934 75.6066C13.0005 74.2137 11.8956 72.5601 11.1418 70.7403C10.388 68.9204 10 66.9698 10 65C7.34784 65 4.8043 63.9464 2.92893 62.0711C1.05357 60.1957 0 57.6522 0 55V10C0 7.34784 1.05357 4.8043 2.92893 2.92893C4.8043 1.05357 7.34784 0 10 0H65ZM25 60C23.6739 60 22.4021 60.5268 21.4645 61.4645C20.5268 62.4021 20 63.6739 20 65C20 66.3261 20.5268 67.5979 21.4645 68.5355C22.4021 69.4732 23.6739 70 25 70C26.3261 70 27.5979 69.4732 28.5355 68.5355C29.4732 67.5979 30 66.3261 30 65C30 63.6739 29.4732 62.4021 28.5355 61.4645C27.5979 60.5268 26.3261 60 25 60ZM70 60C68.6739 60 67.4021 60.5268 66.4645 61.4645C65.5268 62.4021 65 63.6739 65 65C65 66.3261 65.5268 67.5979 66.4645 68.5355C67.4021 69.4732 68.6739 70 70 70C71.3261 70 72.5979 69.4732 73.5355 68.5355C74.4732 67.5979 75 66.3261 75 65C75 63.6739 74.4732 62.4021 73.5355 61.4645C72.5979 60.5268 71.3261 60 70 60ZM82.6 25H75V45H90V34.25L82.6 25Z" fill="#1171A7"/>
</svg>
