<svg width="47" height="34" viewBox="0 0 47 34" fill="none" xmlns="http://www.w3.org/2000/svg">
<path d="M0.0415039 19.7604L1.08317 15.5937H12.5415L11.4998 19.7604H0.0415039ZM13.5832 33.6666C11.8471 33.6666 10.3714 33.059 9.1561 31.8437C7.94081 30.6284 7.33317 29.1527 7.33317 27.4166H2.12484L3.1665 22.8854H13.9478L15.8228 15.2812H20.1978L22.8019 4.86448H8.37484L8.68734 3.61448C8.89567 2.64228 9.3734 1.8527 10.1207 1.24575C10.8679 0.638811 11.7443 0.334642 12.7498 0.333252H36.4998L34.5728 8.66658H40.6665L46.9165 16.9999L44.8332 27.4166H40.6665C40.6665 29.1527 40.0589 30.6284 38.8436 31.8437C37.6283 33.059 36.1526 33.6666 34.4165 33.6666C32.6804 33.6666 31.2047 33.059 29.9894 31.8437C28.7741 30.6284 28.1665 29.1527 28.1665 27.4166H19.8332C19.8332 29.1527 19.2255 30.6284 18.0103 31.8437C16.795 33.059 15.3193 33.6666 13.5832 33.6666ZM4.20817 12.1562L5.24984 7.98948H18.7915L17.7498 12.1562H4.20817ZM13.5832 29.4999C14.1734 29.4999 14.6686 29.2999 15.0686 28.8999C15.4686 28.4999 15.6679 28.0055 15.6665 27.4166C15.6651 26.8277 15.4651 26.3333 15.0665 25.9333C14.6679 25.5333 14.1734 25.3333 13.5832 25.3333C12.9929 25.3333 12.4984 25.5333 12.0998 25.9333C11.7012 26.3333 11.5012 26.8277 11.4998 27.4166C11.4984 28.0055 11.6984 28.5006 12.0998 28.902C12.5012 29.3034 12.9957 29.5027 13.5832 29.4999ZM34.4165 29.4999C35.0068 29.4999 35.5019 29.2999 35.9019 28.8999C36.3019 28.4999 36.5012 28.0055 36.4998 27.4166C36.4984 26.8277 36.2984 26.3333 35.8998 25.9333C35.5012 25.5333 35.0068 25.3333 34.4165 25.3333C33.8262 25.3333 33.3318 25.5333 32.9332 25.9333C32.5346 26.3333 32.3346 26.8277 32.3332 27.4166C32.3318 28.0055 32.5318 28.5006 32.9332 28.902C33.3346 29.3034 33.829 29.5027 34.4165 29.4999ZM32.1769 19.0833H42.229L42.4373 17.9895L38.5832 12.8333H33.6353L32.1769 19.0833Z" fill="#FCB900"/>
</svg>
