<svg width="100" height="100" viewBox="0 0 100 100" fill="none" xmlns="http://www.w3.org/2000/svg">
<path fill-rule="evenodd" clip-rule="evenodd" d="M40.7196 4.46066L36.4845 7.56936C35.7383 8.16454 34.9477 8.70194 34.1198 9.17687C33.5622 9.47324 32.9778 9.71618 32.3744 9.90245C31.6925 10.1089 30.9856 10.2152 29.5656 10.4341L24.3733 11.2285C20.2758 11.854 18.2239 12.173 16.6162 13.13C15.1774 13.9744 13.9825 15.1754 13.1317 16.614C12.1746 18.2403 11.8618 20.2919 11.23 24.3701L10.4355 29.5617C10.2165 30.9816 10.1102 31.6946 9.90375 32.3764C9.71608 32.981 9.47419 33.5607 9.17808 34.1153C8.84027 34.7408 8.42114 35.3225 7.57036 36.4796L4.46125 40.7142C2.00899 44.0544 0.782863 45.7244 0.307426 47.5321C-0.102475 49.1474 -0.102475 50.8394 0.307426 52.4547C0.776607 54.2812 2.00899 55.9575 4.46125 59.2726L7.57036 63.5072C8.42114 64.6643 8.84653 65.2461 9.17808 65.8715C9.47002 66.4303 9.71191 67.0141 9.90375 67.6229C10.1102 68.2985 10.2165 69.0053 10.4355 70.4251L11.23 75.6167C11.8555 79.7137 12.1746 81.7591 13.1317 83.3728C13.9762 84.8115 15.1774 86.0062 16.6162 86.8568C18.2427 87.8138 20.2946 88.1266 24.3733 88.7583L29.5656 89.5527C30.9856 89.7716 31.6988 89.8842 32.3744 90.0906C32.9791 90.2741 33.5609 90.516 34.1198 90.8162C34.7453 91.1477 35.3271 91.5668 36.4845 92.4237L40.7196 95.5324C44.0602 97.9844 45.7305 99.2103 47.5384 99.6857C49.1523 100.105 50.8477 100.105 52.4616 99.6857C54.2883 99.2103 55.9649 97.9844 59.2804 95.5324L63.5156 92.4237C64.6729 91.573 65.2547 91.1477 65.8802 90.8162C66.4391 90.516 67.0209 90.2741 67.6256 90.0906C68.3075 89.8842 69.0144 89.7779 70.4344 89.5527L75.6267 88.7583C79.7242 88.1328 81.7698 87.8201 83.3838 86.8568C84.8227 86.0124 86.0238 84.8115 86.8683 83.3728C87.8254 81.7466 88.1382 79.6949 88.77 75.6167L89.5645 70.4251C89.7835 69.0053 89.8898 68.2985 90.0962 67.6167C90.2839 67.012 90.5258 66.4303 90.8219 65.8715C91.1597 65.2461 91.5789 64.6643 92.4296 63.5072L95.5388 59.2726C97.991 55.9325 99.2171 54.2687 99.6926 52.4547C100.102 50.8394 100.102 49.1474 99.6926 47.5321C99.2234 45.7057 97.991 44.0293 95.5388 40.7142L92.4296 36.4796C91.8344 35.7335 91.2969 34.9431 90.8219 34.1153C90.5255 33.5578 90.2825 32.9734 90.0962 32.3702C89.8478 31.4489 89.6701 30.51 89.5645 29.5617L88.77 24.3701C88.1445 20.2731 87.8254 18.2215 86.8683 16.614C86.0153 15.1805 84.8175 13.9828 83.3838 13.13C81.7573 12.173 79.7054 11.8602 75.6267 11.2285L70.4344 10.4341C69.486 10.3286 68.547 10.1508 67.6256 9.90245C67.0209 9.71994 66.4361 9.47685 65.8802 9.17687C65.0523 8.70194 64.2617 8.16454 63.5156 7.56936L59.2804 4.46066C55.9398 2.00873 54.2696 0.78276 52.4616 0.307385C50.8461 -0.102462 49.1539 -0.102462 47.5384 0.307385C45.7117 0.78276 44.0351 2.00873 40.7196 4.46066ZM74.0628 38.2998C74.4248 37.8582 74.6946 37.3486 74.8563 36.801C75.018 36.2533 75.0682 35.6789 75.0041 35.1115C74.9399 34.5441 74.7627 33.9954 74.4828 33.4977C74.2029 33 73.8261 32.5634 73.3746 32.2138C72.4562 31.4954 71.2936 31.164 70.1344 31.2902C68.9752 31.4163 67.9112 31.9901 67.1689 32.8893L46.4624 58.2843L35.3897 49.7776C34.4852 49.0416 33.3289 48.6878 32.1674 48.7918C31.0058 48.8958 29.9308 49.4493 29.1715 50.3343C28.8005 50.7683 28.5203 51.2723 28.3474 51.8165C28.1746 52.3606 28.1126 52.9339 28.165 53.5024C28.2175 54.071 28.3835 54.6232 28.653 55.1265C28.9226 55.6299 29.2903 56.074 29.7345 56.4329L44.2478 67.7543C45.1643 68.4997 46.3385 68.8523 47.5141 68.7351C48.6897 68.6179 49.7711 68.0404 50.5224 67.1288L74.044 38.231L74.0628 38.2998Z" fill="#1171A7"/>
</svg>
